<svg width="400" height="400" viewBox="0 0 400 400" fill="none" xmlns="http://www.w3.org/2000/svg">
<g clip-path="url(#clip0_2703_170)">
<path d="M248 2.99923C248.925 3.1602 249.85 3.32117 250.804 3.48702C279.879 8.67609 309.433 18.3219 332 37.9992C332.69 38.5909 333.381 39.1826 334.093 39.7922C342.874 47.8988 349.655 59.5275 350.365 71.5671C350.52 75.9781 350.517 80.3839 350.466 84.7968C350.437 87.5596 350.446 90.3204 350.459 93.0832C350.435 110.125 350.435 110.125 347 117.999C347.747 118.129 348.495 118.258 349.265 118.392C353.209 119.268 356.451 121.048 360 122.937C360.747 123.334 361.495 123.732 362.265 124.141C378.587 133.07 392.881 145.482 399.19 163.471C400.794 170.464 400.587 177.599 400.521 184.742C400.5 187.494 400.521 190.243 400.546 192.995C400.575 210.661 395.752 222.437 383.656 235.46C376.669 242.138 368.854 247.191 360.154 251.342C353.243 254.469 353.243 254.47 348.14 259.831C347.08 262.675 347.08 262.675 346.57 265.421C346 267.999 346 267.999 344.367 270.577C342.801 272.824 342.801 272.824 343.156 274.968C344.212 277.51 345.323 280.01 346.5 282.499C348.677 287.106 350.103 290.931 350.177 296.042C350.189 296.827 350.202 297.613 350.215 298.421C350.227 299.684 350.227 299.684 350.238 300.972C350.246 301.85 350.254 302.728 350.262 303.633C350.276 305.493 350.287 307.354 350.295 309.214C350.306 311.1 350.327 312.986 350.356 314.872C350.673 335.031 350.673 335.031 346 343.999C345.47 345.043 344.94 346.088 344.394 347.163C326.207 375.455 290.422 388.048 259 394.999C243.697 397.979 228.347 400.124 212.742 400.202C211.804 400.209 210.865 400.216 209.899 400.224C206.891 400.241 203.883 400.247 200.875 400.249C199.846 400.25 198.817 400.251 197.756 400.251C182.296 400.235 167.246 399.793 152 396.999C151.074 396.838 150.149 396.677 149.195 396.511C120.12 391.322 90.5656 381.677 67.9995 361.999C66.9631 361.112 66.9631 361.112 65.9058 360.206C57.1216 352.096 50.3761 340.483 49.6179 328.447C49.4462 324.05 49.4373 319.657 49.4781 315.257C49.4995 312.505 49.4782 309.755 49.4527 307.003C49.4355 296.493 49.8975 287.491 55.6695 278.357C57.2989 276.1 57.2989 276.1 56.437 273.749C55.9627 272.842 55.4883 271.934 54.9995 270.999C54.3025 269.483 53.6158 267.961 52.937 266.437C52.4246 265.321 52.4246 265.321 51.9019 264.183C50.4822 260.747 49.8752 257.652 49.8384 253.94C49.8288 253.152 49.8192 252.364 49.8093 251.551C49.805 250.707 49.8008 249.862 49.7964 248.991C49.7907 248.111 49.785 247.23 49.7791 246.323C49.7697 244.458 49.7632 242.594 49.7593 240.73C49.7496 237.905 49.7186 235.081 49.687 232.257C49.636 223.328 49.6192 215.415 52.9995 206.999C52.2512 206.869 51.5028 206.739 50.7317 206.604C34.9193 203.103 17.254 188.919 7.99954 175.999C3.92318 169.171 -0.0612406 162.059 -0.177462 153.956C-0.190297 153.171 -0.203132 152.386 -0.216357 151.577C-0.223743 150.735 -0.23113 149.894 -0.238741 149.027C-0.246813 148.148 -0.254885 147.27 -0.263201 146.365C-0.277019 144.505 -0.287751 142.645 -0.295626 140.785C-0.307106 138.898 -0.327495 137.012 -0.357149 135.126C-0.674138 114.951 -0.674138 114.951 3.99954 105.999C4.54095 104.943 5.08235 103.888 5.64017 102.8C15.8384 87.0324 31.2063 76.8683 47.9995 68.9992C48.6595 68.9992 49.3195 68.9992 49.9995 68.9992C50.2058 67.7411 50.412 66.483 50.6245 65.1867C54.3691 48.8841 67.3894 36.8735 81.0215 28.2214C102.722 14.813 126.964 7.35424 152 2.99923C152.885 2.83696 153.77 2.6747 154.683 2.50753C184.504 -2.74164 218.238 -2.45479 248 2.99923ZM72.8042 52.3234C66.5772 59.9497 62.1063 67.372 62.6284 77.4992C64.0615 87.1536 69.2165 93.2936 75.9995 99.9992C76.6557 100.677 77.3118 101.355 77.9878 102.054C108.087 131.159 159.323 137.218 199.062 137.249C199.849 137.25 200.635 137.251 201.445 137.251C244.528 137.193 293.978 129.475 326 97.9992C326.672 97.3392 327.345 96.6792 328.039 95.9992C333.721 90.002 337.094 83.3402 337.5 74.9992C336.944 64.2253 331.444 57.3467 324 49.9992C323.32 49.3096 322.641 48.6199 321.941 47.9094C300.036 26.998 266.988 19.3379 238 14.9992C237.23 14.8806 236.46 14.762 235.667 14.6399C184.575 7.13521 110.618 12.2895 72.8042 52.3234ZM23.187 102.374C17.3334 108.342 12.9461 116.068 12.687 124.562C12.8795 135.611 18.3927 142.479 25.9995 149.999C26.6557 150.677 27.3118 151.355 27.9878 152.054C57.9397 181.017 108.989 187.217 148.562 187.249C149.706 187.25 149.706 187.25 150.874 187.251C177.158 187.215 204.286 184.513 229 174.999C229 174.669 229 174.339 229 173.999C228.404 174.006 227.808 174.013 227.194 174.019C220.848 174.087 214.502 174.132 208.156 174.164C205.805 174.179 203.454 174.199 201.102 174.226C154.39 174.736 101.007 166.62 65.4605 133.644C57.2324 125.209 51.1267 114.271 50.6831 102.359C50.6412 101.289 50.5993 100.219 50.5562 99.1164C50.5169 98.0052 50.4775 96.8941 50.437 95.7492C50.3939 94.6226 50.3507 93.4959 50.3062 92.3352C50.2002 89.5566 50.0981 86.778 49.9995 83.9992C40.966 83.9992 29.3168 96.6295 23.187 102.374ZM339 128.999C337.923 130.11 336.864 131.239 335.812 132.374C328.307 139.92 319.821 145.768 310.204 150.244C301.522 154.316 301.522 154.316 296.812 162.499C296.354 164.16 296.354 164.16 295.886 165.855C294.544 170.614 291.985 174.12 289 177.999C288.534 178.64 288.069 179.281 287.589 179.941C265.126 208.379 219.281 218.303 185.338 222.34C180.228 222.923 175.116 223.475 170 223.999C190.281 237.521 225.336 237.231 249 237.249C249.789 237.25 250.578 237.251 251.391 237.251C294.492 237.193 343.961 229.491 376 197.999C376.672 197.339 377.345 196.679 378.039 195.999C383.744 189.978 387.097 183.308 387.5 174.937C387.091 166.238 382.48 159.469 377 152.999C376.3 152.156 376.3 152.156 375.585 151.296C366.169 140.962 352.738 134.269 340 128.999C339.67 128.999 339.34 128.999 339 128.999ZM65.9995 212.999C62.644 220.689 61.6834 226.865 64.437 234.937C67.1058 240.998 71.336 245.389 75.9995 249.999C76.6557 250.677 77.3118 251.355 77.9878 252.054C107.94 281.017 158.989 287.217 198.562 287.249C199.706 287.25 199.706 287.25 200.874 287.251C227.764 287.214 254.482 283.766 280 274.999C280 274.669 280 274.339 280 273.999C279.391 274.006 278.783 274.013 278.156 274.019C271.68 274.087 265.205 274.132 258.729 274.164C256.329 274.179 253.929 274.199 251.53 274.226C203.956 274.734 152.08 266.18 115.414 233.53C113 230.999 113 230.999 111.695 228.852C108.173 223.333 105.231 221.311 98.8511 219.659C96.1188 219.065 93.3762 218.557 90.6245 218.062C89.2385 217.786 87.853 217.506 86.4683 217.224C83.8268 216.689 81.1841 216.177 78.5357 215.675C74.3338 214.872 70.1688 213.956 65.9995 212.999ZM66.9995 285.999C63.057 294.43 61.396 300.954 64.437 309.937C67.1058 315.998 71.336 320.389 75.9995 324.999C76.6557 325.677 77.3118 326.355 77.9878 327.054C108.087 356.159 159.323 362.218 199.062 362.249C199.849 362.25 200.635 362.251 201.445 362.251C244.528 362.193 293.978 354.475 326 322.999C326.672 322.339 327.345 321.679 328.039 320.999C333.529 315.205 337.058 308.582 337.5 300.499C337.275 295.26 335.195 290.695 333 285.999C329.466 287.571 326.708 289.726 323.687 292.124C293.628 315.087 249.97 324.016 212.839 324.202C211.9 324.209 210.961 324.216 209.993 324.224C170.309 324.454 170.309 324.454 152 320.999C150.907 320.795 149.815 320.591 148.69 320.381C121.414 315.122 95.4956 306.641 72.9995 289.999C71.0133 288.644 69.0091 287.32 66.9995 285.999Z" fill="white"/>
<path d="M188 25C195.92 25 203.84 25 212 25C212 27.97 212 30.94 212 34C214.104 33.8762 214.104 33.8762 216.25 33.75C231.57 33.8093 249.42 37.4676 260.875 48.3125C263 51 263 51 263 53C259.123 53.7189 255.246 54.4307 251.367 55.1362C249.404 55.4947 247.442 55.8586 245.48 56.2227C243.615 56.561 243.615 56.561 241.711 56.9062C240.569 57.1157 239.428 57.3252 238.251 57.541C230 58.7058 230 58.7058 227.34 56.8281C226.877 56.3073 226.414 55.7866 225.938 55.25C218.066 47.9976 206.984 47.269 196.758 47.6641C191.861 48.1018 187.559 49.2081 183 51C182.01 51.33 181.02 51.66 180 52C179.582 54.3731 179.582 54.3731 180 57C183.978 60.0745 188.288 60.9245 193.125 61.8125C193.963 61.975 194.801 62.1375 195.665 62.3049C201.608 63.4336 207.57 64.4331 213.539 65.4141C215.07 65.6682 216.601 65.9223 218.132 66.1765C221.14 66.6753 224.149 67.1576 227.161 67.6301C234.51 68.8166 241.633 70.3004 248.75 72.5039C249.403 72.7052 250.055 72.9066 250.727 73.114C257.721 75.3884 265.471 79.2489 269 86C269.873 90.9178 269.822 95.4307 267.125 99.75C258.557 109.95 244.372 112.813 231.875 114.75C231.052 114.878 230.229 115.006 229.381 115.137C223.543 115.964 217.895 116.105 212 116C212 119.96 212 123.92 212 128C204.08 128 196.16 128 188 128C188 124.04 188 120.08 188 116C186.556 116.062 185.112 116.124 183.625 116.188C166.717 116.144 146.489 112.423 134.121 100.133C130 95.5241 130 95.5241 130 93C135.173 92.2789 140.35 91.6007 145.533 90.9614C147.295 90.7381 149.056 90.5031 150.815 90.2563C153.346 89.9032 155.88 89.5923 158.418 89.2891C159.201 89.1706 159.985 89.0521 160.792 88.9301C163.036 88.686 163.036 88.686 167 89C169.222 90.794 170.379 92.5824 172 95C180.091 100.964 190.902 101.335 200.562 101.25C201.444 101.258 202.325 101.265 203.232 101.273C210.871 101.251 217.994 100.164 225 97C225.417 94.1264 225.417 94.1264 225 91C221.072 87.9091 216.743 87.0742 211.938 86.1875C211.103 86.025 210.268 85.8625 209.407 85.6951C203.357 84.5468 197.285 83.5536 191.203 82.5859C189.622 82.3318 188.042 82.0777 186.461 81.8235C183.345 81.3232 180.227 80.8413 177.107 80.3699C163.348 78.2248 147.633 75.5583 137.938 64.6875C136.337 60.099 135.931 55.6625 137.773 51.0742C143.311 42.2186 154.382 38.4883 164 36C172.022 34.3111 179.815 33.7047 188 34C188 31.03 188 28.06 188 25Z" fill="white"/>
</g>
<defs>
<clipPath id="clip0_2703_170">
<rect width="400" height="400" fill="white"/>
</clipPath>
</defs>
</svg>
