<?xml version="1.0" encoding="UTF-8"?>
<svg version="1.1" xmlns="http://www.w3.org/2000/svg" width="400" height="400">
<path d="M0 0 C0.92538574 0.16097168 1.85077148 0.32194336 2.80419922 0.48779297 C31.87995796 5.67686632 61.433905 15.32263704 84 35 C84.6909375 35.59167969 85.381875 36.18335938 86.09375 36.79296875 C94.87430777 44.8995802 101.65526436 56.5282998 102.36547852 68.56787109 C102.520042 72.97886476 102.51718639 77.38462934 102.46655273 81.79760742 C102.43752267 84.56034278 102.44599035 87.32116065 102.45898438 90.08398438 C102.43535481 107.12551243 102.43535481 107.12551243 99 115 C99.74765625 115.12963135 100.4953125 115.2592627 101.265625 115.39282227 C105.20991361 116.26866564 108.45129207 118.04883861 112 119.9375 C112.74749512 120.33501465 113.49499023 120.7325293 114.26513672 121.14208984 C130.58756683 130.07086639 144.88130116 142.48306173 151.19067383 160.47167969 C152.79472469 167.46466403 152.58770763 174.59947924 152.52148438 181.74267578 C152.50004121 184.49471144 152.52136212 187.24413736 152.546875 189.99609375 C152.57514395 207.66219079 147.7521578 219.43767676 135.65625 232.4609375 C128.66970104 239.13925636 120.85478939 244.19146863 112.15478516 248.3425293 C105.24308619 251.47026801 105.24308619 251.47026801 100.140625 256.83203125 C99.08016899 259.67533929 99.08016899 259.67533929 98.5703125 262.421875 C98 265 98 265 96.3671875 267.578125 C94.80151627 269.82456913 94.80151627 269.82456913 95.15625 271.96875 C96.21227928 274.5110427 97.3237054 277.01063237 98.5 279.5 C100.67701044 284.10716163 102.10368308 287.93170635 102.17700195 293.04321289 C102.18983719 293.82825699 102.20267242 294.61330109 102.21589661 295.4221344 C102.22697701 296.68464272 102.22697701 296.68464272 102.23828125 297.97265625 C102.246353 298.85094589 102.25442474 299.72923553 102.26274109 300.63414001 C102.27655909 302.49427329 102.28729144 304.35443168 102.29516602 306.21459961 C102.30664619 308.10074387 102.32703467 309.98685667 102.35668945 311.87280273 C102.67341218 332.03158528 102.67341218 332.03158528 98 341 C97.47019531 342.04414063 96.94039063 343.08828125 96.39453125 344.1640625 C78.206962 372.45583689 42.42292832 385.04906961 11 392 C-4.30266221 394.97968819 -19.65267274 397.12428516 -35.2578125 397.203125 C-36.19595291 397.21013931 -37.13409332 397.21715363 -38.10066223 397.22438049 C-41.10882436 397.24176943 -44.11678947 397.2482321 -47.125 397.25 C-48.15400421 397.25067474 -49.18300842 397.25134949 -50.24319458 397.25204468 C-65.70384813 397.23593591 -80.75354255 396.79402778 -96 394 C-96.92538574 393.83902832 -97.85077148 393.67805664 -98.80419922 393.51220703 C-127.87995796 388.32313368 -157.433905 378.67736296 -180 359 C-181.03640625 358.11248047 -181.03640625 358.11248047 -182.09375 357.20703125 C-190.87794693 349.09705996 -197.62346666 337.48357539 -198.3815918 325.44824219 C-198.5532939 321.05033009 -198.56228161 316.65793371 -198.52148438 312.25732422 C-198.50004121 309.50528856 -198.52136212 306.75586264 -198.546875 304.00390625 C-198.56399098 293.49374136 -198.10207542 284.49135443 -192.33007812 275.35742188 C-190.70064276 273.10100332 -190.70064276 273.10100332 -191.5625 270.75 C-192.036875 269.8425 -192.51125 268.935 -193 268 C-193.69699372 266.48349414 -194.3837253 264.96224758 -195.0625 263.4375 C-195.57490234 262.32181641 -195.57490234 262.32181641 -196.09765625 261.18359375 C-197.51732187 257.74812587 -198.12436838 254.65244508 -198.16113281 250.94091797 C-198.17074036 250.15264618 -198.1803479 249.36437439 -198.19024658 248.55221558 C-198.19449646 247.70740631 -198.19874634 246.86259705 -198.203125 245.9921875 C-198.20882507 245.11152618 -198.21452515 244.23086487 -198.22039795 243.32351685 C-198.22983575 241.45917964 -198.23637708 239.59482585 -198.24023438 237.73046875 C-198.24989417 234.90594521 -198.28090991 232.08216399 -198.3125 229.2578125 C-198.36358124 220.32869298 -198.38038744 212.41538557 -195 204 C-195.74838135 203.86964355 -196.4967627 203.73928711 -197.26782227 203.60498047 C-213.08020612 200.10367699 -230.74550588 185.9196403 -240 173 C-244.07635551 166.1714799 -248.06078073 159.05927883 -248.17700195 150.95678711 C-248.18983719 150.17174301 -248.20267242 149.38669891 -248.21589661 148.5778656 C-248.22328354 147.73619339 -248.23067047 146.89452118 -248.23828125 146.02734375 C-248.246353 145.14905411 -248.25442474 144.27076447 -248.26274109 143.36585999 C-248.27655909 141.50572671 -248.28729144 139.64556832 -248.29516602 137.78540039 C-248.30664619 135.89925613 -248.32703467 134.01314333 -248.35668945 132.12719727 C-248.67367854 111.95146157 -248.67367854 111.95146157 -244 103 C-243.45859375 101.94425781 -242.9171875 100.88851562 -242.359375 99.80078125 C-232.16117228 84.03317171 -216.79319821 73.86906408 -200 66 C-199.34 66 -198.68 66 -198 66 C-197.79375 64.741875 -197.5875 63.48375 -197.375 62.1875 C-193.6304811 45.88483268 -180.61010851 33.87430237 -166.97802734 25.22216797 C-145.27710344 11.81377189 -121.03586999 4.35501203 -96 0 C-95.1145752 -0.16226074 -94.22915039 -0.32452148 -93.31689453 -0.49169922 C-63.49575551 -5.74086974 -29.76146742 -5.45401232 0 0 Z M-175.1953125 49.32421875 C-181.42233752 56.9504336 -185.89327941 64.37276287 -185.37109375 74.5 C-183.93802623 84.15434962 -178.78307911 90.29437856 -172 97 C-171.34386719 97.67804688 -170.68773437 98.35609375 -170.01171875 99.0546875 C-139.91281459 128.1600356 -88.67688858 134.2190956 -48.9375 134.25 C-48.15098053 134.25067474 -47.36446106 134.25134949 -46.55410767 134.25204468 C-3.4714399 134.19381971 45.9781109 126.47544048 78 95 C78.67289062 94.34 79.34578125 93.68 80.0390625 93 C85.72191172 87.0027804 89.09471535 80.34101958 89.5 72 C88.94446924 61.2260702 83.44427172 54.34743567 76 47 C75.32066406 46.31035156 74.64132812 45.62070312 73.94140625 44.91015625 C52.03619902 23.99875804 18.98801848 16.33871184 -10 12 C-10.76973145 11.88140625 -11.53946289 11.7628125 -12.33251953 11.640625 C-63.42440725 4.13598051 -137.38174158 9.290278 -175.1953125 49.32421875 Z M-224.8125 99.375 C-230.66613227 105.34259679 -235.05344675 113.06828044 -235.3125 121.5625 C-235.1200579 132.61188401 -229.60684915 139.48001536 -222 147 C-221.34386719 147.67804688 -220.68773437 148.35609375 -220.01171875 149.0546875 C-190.05983498 178.01786831 -139.01046704 184.21823049 -99.4375 184.25 C-98.29323547 184.25101212 -98.29323547 184.25101212 -97.12585449 184.25204468 C-70.84191616 184.21545371 -43.71384273 181.51350075 -19 172 C-19 171.67 -19 171.34 -19 171 C-19.59594467 171.00666183 -20.19188934 171.01332367 -20.80589294 171.02018738 C-27.15170751 171.08787115 -33.49741581 171.13233521 -39.84350586 171.16479492 C-42.19478535 171.17964914 -44.54603837 171.19993791 -46.8972168 171.22631836 C-93.60962595 171.73634466 -146.99205944 163.62121255 -182.5390625 130.64453125 C-190.7671745 122.21002848 -196.87285764 111.27182345 -197.31640625 99.359375 C-197.35830078 98.28945312 -197.40019531 97.21953125 -197.44335938 96.1171875 C-197.48267578 95.00601563 -197.52199219 93.89484375 -197.5625 92.75 C-197.60568359 91.62335938 -197.64886719 90.49671875 -197.69335938 89.3359375 C-197.79932015 86.55741046 -197.90139142 83.77879609 -198 81 C-207.03356809 81 -218.68277165 93.63027938 -224.8125 99.375 Z M91 126 C89.92300732 127.11113366 88.86441583 128.24009721 87.8125 129.375 C80.3069997 136.92042318 71.82139211 142.76924562 62.20410156 147.24438477 C53.52263806 151.31651282 53.52263806 151.31651282 48.8125 159.5 C48.35423828 161.16095703 48.35423828 161.16095703 47.88671875 162.85546875 C46.54477431 167.6143466 43.98547541 171.12111549 41 175 C40.53464844 175.64066406 40.06929688 176.28132813 39.58984375 176.94140625 C17.12607049 205.38019849 -28.71850499 215.30348527 -62.66162109 219.34106445 C-67.77143691 219.9233846 -72.88387622 220.47607416 -78 221 C-57.7180758 234.5212828 -22.66374142 234.23169954 1 234.25 C1.78901703 234.25067474 2.57803406 234.25134949 3.39096069 234.25204468 C46.4927012 234.19394071 95.96141932 226.49184723 128 195 C128.67289063 194.34 129.34578125 193.68 130.0390625 193 C135.74488332 186.97853803 139.09766173 180.30873169 139.5 171.9375 C139.09161314 163.23885982 134.48091587 156.47015435 129 150 C128.30003906 149.15695313 128.30003906 149.15695313 127.5859375 148.296875 C118.1690865 137.96248468 104.73889016 131.27006141 92 126 C91.67 126 91.34 126 91 126 Z M-182 210 C-185.35558682 217.68988646 -186.31616168 223.86598708 -183.5625 231.9375 C-180.89375201 237.99856499 -176.66358925 242.38966544 -172 247 C-171.34386719 247.67804688 -170.68773437 248.35609375 -170.01171875 249.0546875 C-140.05983498 278.01786831 -89.01046704 284.21823049 -49.4375 284.25 C-48.29323547 284.25101212 -48.29323547 284.25101212 -47.12585449 284.25204468 C-20.23509881 284.21460894 6.48205286 280.76720257 32 272 C32 271.67 32 271.34 32 271 C31.39152725 271.00666183 30.7830545 271.01332367 30.15614319 271.02018738 C23.68056668 271.08783855 17.20509413 271.1323226 10.72924805 271.16479492 C8.32946684 271.17965474 5.92971162 271.19994822 3.5300293 271.22631836 C-44.04349299 271.73507274 -95.91969104 263.1810525 -132.5859375 230.53125 C-135 228 -135 228 -136.30419922 225.85327148 C-139.82618719 220.3333086 -142.76883613 218.31141421 -149.1484375 216.66015625 C-151.88072767 216.06552079 -154.62330854 215.55817614 -157.375 215.0625 C-158.76108679 214.78654803 -160.14651601 214.50727147 -161.53125 214.22460938 C-164.17278951 213.69012755 -166.81547979 213.17746901 -169.46386719 212.67626953 C-173.66572892 211.87268233 -177.8307486 210.9568016 -182 210 Z M-181 283 C-184.94258787 291.43080175 -186.6035685 297.95443592 -183.5625 306.9375 C-180.89375201 312.99856499 -176.66358925 317.38966544 -172 322 C-171.34386719 322.67804688 -170.68773437 323.35609375 -170.01171875 324.0546875 C-139.91281459 353.1600356 -88.67688858 359.2190956 -48.9375 359.25 C-48.15098053 359.25067474 -47.36446106 359.25134949 -46.55410767 359.25204468 C-3.4714399 359.19381971 45.9781109 351.47544048 78 320 C78.67289062 319.34 79.34578125 318.68 80.0390625 318 C85.52933834 312.20600678 89.05806068 305.58321269 89.5 297.5 C89.27505047 292.26055064 87.19593173 287.69576473 85 283 C81.46657693 284.57224914 78.70888771 286.72627725 75.6875 289.125 C45.62871851 312.08766427 1.97085652 321.01642106 -35.16015625 321.203125 C-36.09953033 321.21018463 -37.03890442 321.21724426 -38.00674438 321.22451782 C-77.69058786 321.45495466 -77.69058786 321.45495466 -96 318 C-97.0921582 317.79600586 -98.18431641 317.59201172 -99.30957031 317.38183594 C-126.58536048 312.12265327 -152.50389818 303.64138791 -175 287 C-176.98628934 285.64453451 -178.99039817 284.32093473 -181 283 Z " fill="currentColor" transform="translate(248,3)"/>
<path d="M0 0 C7.92 0 15.84 0 24 0 C24 2.97 24 5.94 24 9 C26.10375 8.87625 26.10375 8.87625 28.25 8.75 C43.56990099 8.80930284 61.42021535 12.46757657 72.875 23.3125 C75 26 75 26 75 28 C71.1234573 28.71886963 67.24569194 29.43069727 63.36669922 30.13623047 C61.4039504 30.49471242 59.44219945 30.85864403 57.48046875 31.22265625 C55.61455078 31.56103516 55.61455078 31.56103516 53.7109375 31.90625 C52.56931152 32.11572266 51.42768555 32.32519531 50.25146484 32.54101562 C41.99991657 33.70582346 41.99991657 33.70582346 39.33984375 31.828125 C38.87707031 31.30734375 38.41429687 30.7865625 37.9375 30.25 C30.06638587 22.99757606 18.98435461 22.26900841 8.7578125 22.6640625 C3.86147383 23.10178093 -0.44145637 24.20814884 -5 26 C-5.99 26.33 -6.98 26.66 -8 27 C-8.41780879 29.37305578 -8.41780879 29.37305578 -8 32 C-4.0217027 35.07448995 0.2880233 35.92451621 5.125 36.8125 C5.96321289 36.97500244 6.80142578 37.13750488 7.66503906 37.30493164 C13.60805358 38.43364772 19.57036466 39.43310252 25.5390625 40.4140625 C27.07015937 40.66815486 28.60124652 40.92230582 30.13232422 41.17651367 C33.13968089 41.67534012 36.14905049 42.15764011 39.16064453 42.63012695 C46.50961693 43.81656951 53.63256688 45.30038874 60.75 47.50390625 C61.40256775 47.70523666 62.0551355 47.90656708 62.72747803 48.11399841 C69.72085993 50.38838563 77.47104108 54.24894816 81 61 C81.8727797 65.91777795 81.82216468 70.43069714 79.125 74.75 C70.55687331 84.95015083 56.37225027 87.81284525 43.875 89.75 C43.05209473 89.87785889 42.22918945 90.00571777 41.38134766 90.13745117 C35.54299305 90.96361149 29.89531929 91.10508591 24 91 C24 94.96 24 98.92 24 103 C16.08 103 8.16 103 0 103 C0 99.04 0 95.08 0 91 C-1.44375 91.061875 -2.8875 91.12375 -4.375 91.1875 C-21.28326203 91.14397809 -41.51126166 87.42332001 -53.87890625 75.1328125 C-58 70.52407193 -58 70.52407193 -58 68 C-52.82683156 67.2788709 -47.65047681 66.60067839 -42.46655273 65.96142578 C-40.70461559 65.73808392 -38.94410765 65.50314586 -37.18530273 65.25634766 C-34.65376239 64.90317597 -32.11997806 64.59228319 -29.58203125 64.2890625 C-28.79850784 64.17059967 -28.01498444 64.05213684 -27.2077179 63.93008423 C-24.96411133 63.68603516 -24.96411133 63.68603516 -21 64 C-18.77782855 65.79402774 -17.62071065 67.58243044 -16 70 C-7.90897717 75.96356963 2.90191209 76.33517785 12.5625 76.25 C13.44357422 76.25773437 14.32464844 76.26546875 15.23242188 76.2734375 C22.8711195 76.25088784 29.99360695 75.16417751 37 72 C37.41746608 69.12635209 37.41746608 69.12635209 37 66 C33.07162768 62.90907139 28.74313461 62.07423909 23.9375 61.1875 C23.10259033 61.02499756 22.26768066 60.86249512 21.4074707 60.69506836 C15.35680026 59.54680833 9.28459439 58.55362104 3.203125 57.5859375 C1.62247482 57.33180201 0.04182706 57.07765146 -1.53881836 56.82348633 C-4.65462409 56.32320717 -7.7725289 55.8412523 -10.89282227 55.36987305 C-24.65163056 53.22477136 -40.36688824 50.55833743 -50.0625 39.6875 C-51.66315051 35.09896853 -52.06932183 30.66250335 -50.2265625 26.07421875 C-44.68934717 17.21860132 -33.61829521 13.48831518 -24 11 C-15.97790482 9.31113786 -8.18548507 8.704732 0 9 C0 6.03 0 3.06 0 0 Z " fill="currentColor" transform="translate(188,25)"/>
</svg>
